<?xml version="1.0" encoding="utf-8"?>
<!-- Generator: Adobe Illustrator 16.0.0, SVG Export Plug-In . SVG Version: 6.00 Build 0)  -->
<!DOCTYPE svg PUBLIC "-//W3C//DTD SVG 1.1//EN" "http://www.w3.org/Graphics/SVG/1.1/DTD/svg11.dtd">
<svg version="1.1" id="Layer_1" xmlns="http://www.w3.org/2000/svg" xmlns:xlink="http://www.w3.org/1999/xlink" x="0px" y="0px"
	 width="50px" height="50px" viewBox="0 0 50 50" enable-background="new 0 0 50 50" xml:space="preserve">
<g>
	<path fill="#C74A1B" d="M24.998,0C11.215,0,0,11.214,0,25s11.215,25,24.998,25c13.788,0,25.001-11.214,25.001-25S38.785,0,24.998,0
		z M8.669,39.813c0.088-6.387,2.845-12.257,7.323-15.754c0.579,1.127,1.366,2.129,2.309,2.964v4.186
		c0,0.275,0.139,0.532,0.368,0.684c0.23,0.15,0.521,0.177,0.774,0.065l4.739-2.066v17.146C18.044,46.813,12.536,44.072,8.669,39.813
		z M19.415,14.432c1.248,1.186,3.73,2.893,7.694,2.893c0.119,0,0.24-0.001,0.361-0.005c0.445-0.012,0.797-0.374,0.797-0.816v-0.277
		l1.423,0.96c0.135,0.089,0.294,0.138,0.458,0.138c0.012,0,0.027,0,0.041-0.001c0.448-0.022,1.21-0.097,1.907-0.329
		c0.27,0.769,0.42,1.59,0.42,2.45c0,4.145-3.372,7.516-7.519,7.516c-4.143,0-7.515-3.371-7.515-7.516
		C17.483,17.518,18.221,15.763,19.415,14.432z M20.635,13.339c1.229-0.885,2.736-1.41,4.362-1.41c2.695,0,5.056,1.429,6.383,3.563
		c-0.303,0.081-0.657,0.145-1.011,0.182l-2.462-1.662c-0.252-0.168-0.575-0.186-0.842-0.044c-0.266,0.144-0.434,0.42-0.434,0.723
		v0.991C23.568,15.557,21.636,14.261,20.635,13.339z M19.934,28.204c0.625,0.363,1.29,0.667,1.991,0.89l-1.991,0.868V28.204z
		 M30.063,28.204v1.758l-1.987-0.868C28.775,28.871,29.439,28.567,30.063,28.204z M25.815,47.038V29.892l4.741,2.066
		c0.102,0.047,0.216,0.067,0.326,0.067c0.157,0,0.313-0.047,0.448-0.133c0.229-0.151,0.368-0.408,0.368-0.684v-4.186
		c0.941-0.835,1.728-1.837,2.307-2.964c4.48,3.498,7.235,9.368,7.325,15.754C37.463,44.072,31.955,46.813,25.815,47.038z
		 M43.706,36.671c-0.868-6.258-4.053-11.825-8.78-15.188c0.133-0.658,0.206-1.34,0.206-2.039c0-5.586-4.548-10.132-10.134-10.132
		c-5.583,0-10.128,4.546-10.128,10.132c0,0.698,0.069,1.38,0.206,2.039c-4.729,3.362-7.913,8.93-8.782,15.188
		C4.172,33.282,2.942,29.282,2.942,25c0-12.162,9.895-22.059,22.056-22.059c12.165,0,22.061,9.897,22.061,22.059
		C47.059,29.284,45.827,33.282,43.706,36.671z"/>
	<path fill="#C74A1B" d="M30.299,36.186c-0.148,0.157-0.235,0.366-0.235,0.576c0,0.216,0.087,0.424,0.242,0.581
		c0.15,0.149,0.361,0.242,0.577,0.242s0.424-0.093,0.581-0.242c0.15-0.157,0.235-0.365,0.235-0.581c0-0.21-0.085-0.419-0.242-0.576
		C31.156,35.879,30.606,35.885,30.299,36.186z"/>
	<path fill="#C74A1B" d="M30.299,42.069c-0.148,0.156-0.235,0.366-0.235,0.573c0,0.218,0.087,0.426,0.242,0.583
		c0.15,0.15,0.361,0.235,0.577,0.235s0.424-0.085,0.581-0.235c0.15-0.157,0.235-0.365,0.235-0.583c0-0.207-0.085-0.417-0.242-0.573
		C31.151,41.767,30.615,41.762,30.299,42.069z"/>
</g>
</svg>
