<?xml version="1.0" encoding="utf-8"?>
<!-- Generator: Adobe Illustrator 16.0.0, SVG Export Plug-In . SVG Version: 6.00 Build 0)  -->
<!DOCTYPE svg PUBLIC "-//W3C//DTD SVG 1.1//EN" "http://www.w3.org/Graphics/SVG/1.1/DTD/svg11.dtd">
<svg version="1.1" id="Layer_1" xmlns="http://www.w3.org/2000/svg" xmlns:xlink="http://www.w3.org/1999/xlink" x="0px" y="0px"
	 width="50px" height="50px" viewBox="0 0 50 50" enable-background="new 0 0 50 50" xml:space="preserve">
<g>
	<path fill="#C74A1B" d="M7.354,50h35.294c0.812,0,1.471-0.657,1.471-1.469V13.235c0-0.39-0.154-0.764-0.432-1.039L31.923,0.43
		C31.646,0.154,31.274,0,30.883,0H7.354C6.542,0,5.881,0.659,5.881,1.471v47.061C5.881,49.343,6.542,50,7.354,50z M32.027,4.693
		l8.705,8.706h-8.705V4.693z M8.824,2.942h21.452l0.117,0.117v11.156c0,0.451,0.365,0.817,0.816,0.817h9.967v32.025H8.824V2.942z"/>
	<path fill="#C74A1B" d="M17.324,38.231c-0.319-0.318-0.835-0.318-1.154,0l-1.017,1.015l-1.013-1.015
		c-0.32-0.318-0.837-0.318-1.155,0c-0.32,0.318-0.32,0.837,0,1.154L14,40.402l-1.015,1.016c-0.32,0.316-0.32,0.833,0,1.153
		c0.16,0.161,0.368,0.238,0.577,0.238s0.418-0.077,0.578-0.238l1.013-1.014l1.017,1.014c0.158,0.161,0.369,0.238,0.576,0.238
		c0.21,0,0.42-0.077,0.578-0.238c0.321-0.32,0.321-0.837,0-1.153l-1.015-1.016l1.015-1.017
		C17.646,39.068,17.646,38.55,17.324,38.231z"/>
	<path fill="#C74A1B" d="M13.562,15.033h5.883c0.452,0,0.816-0.367,0.816-0.817V8.334c0-0.452-0.364-0.819-0.816-0.819h-5.883
		c-0.451,0-0.816,0.367-0.816,0.819v5.882C12.746,14.667,13.111,15.033,13.562,15.033z M14.379,9.149h4.249v4.25h-4.249V9.149z"/>
	<path fill="#C74A1B" d="M37.092,25.163H13.562c-0.451,0-0.816,0.366-0.816,0.817s0.365,0.816,0.816,0.816h23.529
		c0.453,0,0.818-0.365,0.818-0.816S37.545,25.163,37.092,25.163z"/>
	<path fill="#C74A1B" d="M37.092,31.045H13.562c-0.451,0-0.816,0.367-0.816,0.818c0,0.45,0.365,0.817,0.816,0.817h23.529
		c0.453,0,0.818-0.367,0.818-0.817C37.91,31.412,37.545,31.045,37.092,31.045z"/>
	<path fill="#C74A1B" d="M37.092,19.281H13.562c-0.451,0-0.816,0.366-0.816,0.817s0.365,0.817,0.816,0.817h23.529
		c0.453,0,0.818-0.367,0.818-0.817S37.545,19.281,37.092,19.281z"/>
	<path fill="#C74A1B" d="M37.092,41.177H19.445c-0.45,0-0.817,0.366-0.817,0.816c0,0.453,0.367,0.816,0.817,0.816h17.646
		c0.453,0,0.818-0.363,0.818-0.816C37.91,41.543,37.545,41.177,37.092,41.177z"/>
</g>
</svg>
