<?xml version="1.0" encoding="utf-8"?>
<!-- Generator: Adobe Illustrator 16.0.0, SVG Export Plug-In . SVG Version: 6.00 Build 0)  -->
<!DOCTYPE svg PUBLIC "-//W3C//DTD SVG 1.1//EN" "http://www.w3.org/Graphics/SVG/1.1/DTD/svg11.dtd">
<svg version="1.1" id="Layer_1" xmlns="http://www.w3.org/2000/svg" xmlns:xlink="http://www.w3.org/1999/xlink" x="0px" y="0px"
	 width="350px" height="90px" viewBox="0 0 350 90" enable-background="new 0 0 350 90" xml:space="preserve">
<g>
	<g>
		<g>
			<g>
				<path fill="#414042" d="M6.918,82.18c-0.586-0.342-1.229-0.51-1.922-0.51c-0.535,0-1.021,0.088-1.463,0.268
					s-0.82,0.43-1.137,0.748c-0.316,0.32-0.559,0.699-0.727,1.137c-0.17,0.439-0.254,0.916-0.254,1.434
					c0,0.543,0.092,1.033,0.273,1.473c0.184,0.438,0.436,0.814,0.756,1.129c0.318,0.316,0.693,0.559,1.121,0.73
					c0.428,0.17,0.881,0.256,1.363,0.256c0.168,0,0.346-0.01,0.533-0.033c0.188-0.021,0.371-0.053,0.555-0.092
					c0.182-0.039,0.355-0.086,0.52-0.139c0.166-0.053,0.307-0.113,0.422-0.184l0.078,1.275c-0.355,0.148-0.729,0.24-1.121,0.275
					C5.525,89.98,5.191,90,4.916,90c-0.74,0-1.412-0.113-2.018-0.334c-0.605-0.225-1.123-0.545-1.551-0.961
					c-0.426-0.416-0.758-0.92-0.994-1.51C0.119,86.604,0,85.943,0,85.217c0-0.709,0.121-1.354,0.367-1.932
					c0.244-0.578,0.588-1.074,1.029-1.486c0.439-0.41,0.961-0.727,1.562-0.953c0.6-0.223,1.256-0.334,1.971-0.334
					c0.365,0,0.721,0.029,1.066,0.088c0.348,0.055,0.691,0.156,1.029,0.307L6.918,82.18z"/>
				<path fill="#414042" d="M12.928,80.67h1.402l3.939,9.172h-1.455l-0.947-2.312h-4.568l-0.947,2.312H8.949L12.928,80.67z
					 M13.582,81.906l-1.855,4.547h3.713L13.582,81.906z"/>
				<path fill="#414042" d="M20.941,80.67h1.816l4.113,7.385h0.027V80.67h1.334v9.172h-1.709l-4.221-7.543h-0.025v7.543h-1.336
					V80.67z"/>
				<path fill="#414042" d="M34.883,80.67h1.402l3.941,9.172H38.77l-0.947-2.312h-4.568l-0.947,2.312h-1.402L34.883,80.67z
					 M35.539,81.906l-1.857,4.547h3.713L35.539,81.906z"/>
				<path fill="#414042" d="M42.83,80.67h2.752c0.695,0,1.342,0.104,1.941,0.309c0.602,0.207,1.127,0.5,1.576,0.887
					c0.451,0.387,0.803,0.857,1.062,1.412c0.258,0.557,0.389,1.189,0.389,1.898c0,0.773-0.117,1.449-0.348,2.031
					c-0.232,0.584-0.562,1.068-0.99,1.459c-0.426,0.391-0.947,0.682-1.562,0.881c-0.613,0.195-1.303,0.295-2.068,0.295H42.83V80.67z
					 M44.167,88.686h1.4c1.15,0,2.031-0.281,2.646-0.842c0.613-0.559,0.922-1.432,0.922-2.615c0-0.535-0.088-1.012-0.262-1.432
					c-0.174-0.422-0.414-0.777-0.721-1.07s-0.668-0.518-1.082-0.672c-0.414-0.152-0.861-0.229-1.342-0.229h-1.562V88.686z"/>
				<path fill="#414042" d="M53.889,80.67h1.334v9.172h-1.334V80.67z"/>
				<path fill="#414042" d="M61.889,80.67h1.4l3.941,9.172h-1.457l-0.947-2.312H60.26l-0.949,2.312h-1.402L61.889,80.67z
					 M62.542,81.906l-1.854,4.547h3.711L62.542,81.906z"/>
				<path fill="#414042" d="M69.903,80.67h1.814l4.115,7.385h0.025V80.67h1.336v9.172h-1.709l-4.221-7.543h-0.027v7.543h-1.334
					V80.67z"/>
				<path fill="#414042" d="M85.94,80.67h1.336v9.172H85.94V80.67z"/>
				<path fill="#414042" d="M90.975,80.67h1.816l4.113,7.385h0.027V80.67h1.334v9.172h-1.709l-4.221-7.543h-0.025v7.543h-1.336
					V80.67z"/>
				<path fill="#414042" d="M106.2,82.049c-0.168-0.061-0.322-0.117-0.459-0.162c-0.139-0.051-0.275-0.092-0.408-0.125
					c-0.133-0.037-0.271-0.061-0.414-0.074s-0.299-0.018-0.467-0.018c-0.188,0-0.377,0.018-0.568,0.057
					c-0.191,0.041-0.367,0.105-0.527,0.197c-0.16,0.094-0.289,0.219-0.389,0.375c-0.096,0.158-0.146,0.354-0.146,0.59
					c0,0.299,0.098,0.543,0.295,0.73c0.195,0.189,0.443,0.361,0.74,0.52c0.299,0.156,0.621,0.312,0.969,0.467s0.67,0.344,0.969,0.57
					c0.297,0.229,0.545,0.51,0.74,0.842c0.195,0.334,0.295,0.75,0.295,1.25c0,0.49-0.09,0.908-0.27,1.254
					c-0.178,0.348-0.422,0.629-0.734,0.848c-0.311,0.219-0.672,0.379-1.088,0.479c-0.412,0.1-0.852,0.152-1.314,0.152
					c-0.33,0-0.652-0.041-0.969-0.119c-0.314-0.078-0.629-0.166-0.941-0.264l0.135-1.221c0.115,0.045,0.25,0.092,0.398,0.145
					c0.152,0.053,0.312,0.1,0.48,0.145c0.17,0.045,0.348,0.08,0.529,0.111c0.184,0.031,0.359,0.047,0.527,0.047
					c0.188,0,0.391-0.029,0.607-0.086c0.219-0.057,0.416-0.145,0.596-0.262c0.178-0.119,0.326-0.271,0.445-0.461
					c0.121-0.189,0.182-0.418,0.182-0.689c0-0.342-0.098-0.619-0.295-0.836c-0.195-0.213-0.443-0.4-0.74-0.562
					c-0.299-0.164-0.621-0.32-0.969-0.469s-0.67-0.326-0.967-0.531c-0.301-0.205-0.545-0.463-0.742-0.771
					c-0.197-0.305-0.293-0.695-0.293-1.168c0-0.402,0.076-0.758,0.232-1.07c0.154-0.311,0.367-0.572,0.635-0.781
					c0.268-0.211,0.584-0.371,0.947-0.48c0.365-0.107,0.758-0.164,1.176-0.164c0.312,0,0.641,0.027,0.988,0.08
					c0.348,0.051,0.682,0.133,1.002,0.25L106.2,82.049z"/>
				<path fill="#414042" d="M111.836,81.826h-2.898V80.67h7.131v1.156h-2.896v8.016h-1.336V81.826z"/>
				<path fill="#414042" d="M118.741,80.67h1.336v9.172h-1.336V80.67z"/>
				<path fill="#414042" d="M125.645,81.826h-2.898V80.67h7.133v1.156h-2.898v8.016h-1.336V81.826z"/>
				<path fill="#414042" d="M139.802,86.043c0,1.297-0.312,2.281-0.939,2.951c-0.629,0.672-1.521,1.006-2.68,1.006
					c-1.156,0-2.049-0.334-2.676-1.006c-0.629-0.67-0.941-1.654-0.941-2.951V80.67h1.334v5.203c0,0.439,0.037,0.84,0.113,1.203
					c0.076,0.365,0.203,0.678,0.381,0.939s0.414,0.467,0.707,0.611c0.295,0.145,0.656,0.217,1.082,0.217
					c0.428,0,0.789-0.072,1.084-0.217c0.293-0.145,0.527-0.35,0.705-0.611c0.18-0.262,0.307-0.574,0.383-0.939
					c0.076-0.363,0.113-0.764,0.113-1.203V80.67h1.334V86.043z"/>
				<path fill="#414042" d="M145.386,81.826h-2.898V80.67h7.131v1.156h-2.896v8.016h-1.336V81.826z"/>
				<path fill="#414042" d="M152.356,80.67h5.221v1.156h-3.885v2.682h3.539v1.154h-3.539v3.023h3.885v1.156h-5.221V80.67z"/>
				<path fill="#414042" d="M165.62,85.256c0-0.684,0.098-1.316,0.299-1.893c0.199-0.578,0.494-1.078,0.881-1.498
					c0.389-0.422,0.857-0.75,1.408-0.992c0.553-0.242,1.186-0.361,1.896-0.361c0.705,0,1.334,0.119,1.891,0.361
					s1.027,0.57,1.416,0.992c0.389,0.42,0.682,0.92,0.883,1.498c0.197,0.576,0.299,1.209,0.299,1.893
					c0,0.701-0.102,1.342-0.299,1.92c-0.201,0.578-0.492,1.076-0.877,1.496c-0.383,0.422-0.852,0.748-1.408,0.979
					c-0.557,0.232-1.189,0.35-1.904,0.35c-0.711,0-1.346-0.117-1.902-0.35c-0.557-0.23-1.025-0.557-1.41-0.979
					c-0.381-0.42-0.674-0.918-0.873-1.496C165.718,86.598,165.62,85.957,165.62,85.256z M167.032,85.256
					c0,0.455,0.062,0.898,0.184,1.328c0.119,0.428,0.305,0.812,0.551,1.148c0.25,0.338,0.568,0.607,0.957,0.809
					c0.387,0.203,0.848,0.303,1.381,0.303c0.535,0,0.996-0.1,1.385-0.303c0.385-0.201,0.705-0.471,0.953-0.809
					c0.25-0.336,0.436-0.721,0.555-1.148c0.121-0.43,0.18-0.873,0.18-1.328c0-0.465-0.064-0.914-0.193-1.348s-0.32-0.814-0.574-1.15
					c-0.252-0.332-0.572-0.598-0.955-0.795c-0.383-0.195-0.832-0.293-1.35-0.293c-0.514,0-0.965,0.098-1.348,0.293
					c-0.381,0.197-0.701,0.463-0.955,0.795c-0.254,0.336-0.445,0.717-0.574,1.15C167.097,84.342,167.032,84.791,167.032,85.256z"/>
				<path fill="#414042" d="M177.746,80.67h4.953v1.156h-3.617v2.682h3.459v1.154h-3.459v4.18h-1.336V80.67z"/>
				<path fill="#414042" d="M195.121,82.049c-0.17-0.061-0.324-0.117-0.461-0.162c-0.139-0.051-0.273-0.092-0.408-0.125
					c-0.135-0.037-0.27-0.061-0.414-0.074c-0.143-0.014-0.297-0.018-0.467-0.018c-0.186,0-0.375,0.018-0.568,0.057
					c-0.191,0.041-0.367,0.105-0.525,0.197c-0.162,0.094-0.291,0.219-0.389,0.375c-0.1,0.158-0.148,0.354-0.148,0.59
					c0,0.299,0.1,0.543,0.295,0.73c0.195,0.189,0.443,0.361,0.74,0.52c0.299,0.156,0.621,0.312,0.971,0.467
					c0.346,0.154,0.668,0.344,0.969,0.57c0.297,0.229,0.545,0.51,0.74,0.842c0.195,0.334,0.293,0.75,0.293,1.25
					c0,0.49-0.09,0.908-0.268,1.254c-0.178,0.348-0.422,0.629-0.734,0.848c-0.311,0.219-0.674,0.379-1.088,0.479
					S192.807,90,192.342,90c-0.328,0-0.652-0.041-0.969-0.119s-0.627-0.166-0.939-0.264l0.135-1.221
					c0.115,0.045,0.246,0.092,0.398,0.145c0.15,0.053,0.312,0.1,0.48,0.145c0.17,0.045,0.344,0.08,0.527,0.111
					c0.182,0.031,0.359,0.047,0.529,0.047c0.188,0,0.387-0.029,0.607-0.086c0.217-0.057,0.416-0.145,0.594-0.262
					c0.178-0.119,0.328-0.271,0.447-0.461c0.121-0.189,0.18-0.418,0.18-0.689c0-0.342-0.098-0.619-0.293-0.836
					c-0.195-0.213-0.443-0.4-0.74-0.562c-0.299-0.164-0.623-0.32-0.969-0.469c-0.35-0.148-0.67-0.326-0.969-0.531
					s-0.547-0.463-0.74-0.771c-0.197-0.305-0.297-0.695-0.297-1.168c0-0.402,0.08-0.758,0.236-1.07
					c0.154-0.311,0.367-0.572,0.633-0.781c0.268-0.211,0.584-0.371,0.949-0.48c0.365-0.107,0.756-0.164,1.176-0.164
					c0.311,0,0.641,0.027,0.986,0.08c0.35,0.051,0.682,0.133,1.004,0.25L195.121,82.049z"/>
				<path fill="#414042" d="M200.758,81.826h-2.9V80.67h7.135v1.156h-2.9v8.016h-1.334V81.826z"/>
				<path fill="#414042" d="M207.729,80.67h5.221v1.156h-3.885v2.682h3.539v1.154h-3.539v3.023h3.885v1.156h-5.221V80.67z"/>
				<path fill="#414042" d="M216.488,80.67h5.223v1.156h-3.887v2.682h3.539v1.154h-3.539v3.023h3.887v1.156h-5.223V80.67z"/>
				<path fill="#414042" d="M225.17,80.67h1.336v8.016h3.898v1.156h-5.234V80.67z"/>
				<path fill="#414042" d="M244.682,82.18c-0.586-0.342-1.229-0.51-1.924-0.51c-0.533,0-1.021,0.088-1.463,0.268
					c-0.439,0.18-0.818,0.43-1.135,0.748c-0.316,0.32-0.559,0.699-0.727,1.137c-0.168,0.439-0.254,0.916-0.254,1.434
					c0,0.543,0.09,1.033,0.273,1.473c0.182,0.438,0.434,0.814,0.754,1.129c0.32,0.316,0.695,0.559,1.123,0.73
					c0.428,0.17,0.881,0.256,1.361,0.256c0.17,0,0.348-0.01,0.535-0.033c0.188-0.021,0.371-0.053,0.555-0.092
					c0.182-0.039,0.355-0.086,0.52-0.139s0.305-0.113,0.42-0.184l0.082,1.275c-0.357,0.148-0.73,0.24-1.123,0.275
					c-0.391,0.033-0.727,0.053-1,0.053c-0.74,0-1.412-0.113-2.018-0.334c-0.605-0.225-1.123-0.545-1.551-0.961
					c-0.426-0.416-0.76-0.92-0.994-1.51c-0.236-0.592-0.354-1.252-0.354-1.979c0-0.709,0.121-1.354,0.367-1.932
					c0.244-0.578,0.588-1.074,1.027-1.486c0.441-0.41,0.963-0.727,1.564-0.953c0.6-0.223,1.256-0.334,1.969-0.334
					c0.363,0,0.723,0.029,1.068,0.088c0.348,0.055,0.691,0.156,1.027,0.307L244.682,82.18z"/>
				<path fill="#414042" d="M247.26,85.256c0-0.684,0.1-1.316,0.301-1.893c0.197-0.578,0.494-1.078,0.879-1.498
					c0.389-0.422,0.857-0.75,1.41-0.992s1.186-0.361,1.896-0.361c0.705,0,1.332,0.119,1.889,0.361s1.029,0.57,1.416,0.992
					c0.389,0.42,0.682,0.92,0.883,1.498c0.199,0.576,0.301,1.209,0.301,1.893c0,0.701-0.102,1.342-0.301,1.92
					c-0.201,0.578-0.492,1.076-0.875,1.496c-0.383,0.422-0.854,0.748-1.41,0.979c-0.557,0.232-1.189,0.35-1.902,0.35
					c-0.711,0-1.348-0.117-1.904-0.35c-0.557-0.23-1.025-0.557-1.408-0.979c-0.381-0.42-0.676-0.918-0.873-1.496
					C247.359,86.598,247.26,85.957,247.26,85.256z M248.674,85.256c0,0.455,0.062,0.898,0.182,1.328
					c0.121,0.428,0.305,0.812,0.553,1.148c0.25,0.338,0.568,0.607,0.957,0.809c0.385,0.203,0.848,0.303,1.381,0.303
					s0.996-0.1,1.383-0.303c0.387-0.201,0.705-0.471,0.955-0.809c0.25-0.336,0.434-0.721,0.555-1.148
					c0.119-0.43,0.18-0.873,0.18-1.328c0-0.465-0.064-0.914-0.193-1.348c-0.131-0.434-0.322-0.814-0.576-1.15
					c-0.252-0.332-0.57-0.598-0.953-0.795c-0.385-0.195-0.832-0.293-1.35-0.293c-0.516,0-0.967,0.098-1.35,0.293
					c-0.381,0.197-0.699,0.463-0.953,0.795c-0.254,0.336-0.447,0.717-0.576,1.15S248.674,84.791,248.674,85.256z"/>
				<path fill="#414042" d="M259.453,80.67h1.814l4.117,7.385h0.027V80.67h1.334v9.172h-1.709l-4.223-7.543h-0.027v7.543h-1.334
					V80.67z"/>
				<path fill="#414042" d="M274.678,82.049c-0.17-0.061-0.322-0.117-0.461-0.162c-0.139-0.051-0.271-0.092-0.406-0.125
					c-0.133-0.037-0.271-0.061-0.416-0.074c-0.141-0.014-0.297-0.018-0.467-0.018c-0.186,0-0.375,0.018-0.566,0.057
					c-0.193,0.041-0.369,0.105-0.527,0.197c-0.16,0.094-0.289,0.219-0.389,0.375c-0.098,0.158-0.145,0.354-0.145,0.59
					c0,0.299,0.096,0.543,0.293,0.73c0.195,0.189,0.443,0.361,0.74,0.52c0.299,0.156,0.623,0.312,0.969,0.467s0.67,0.344,0.969,0.57
					c0.297,0.229,0.545,0.51,0.738,0.842c0.197,0.334,0.295,0.75,0.295,1.25c0,0.49-0.088,0.908-0.268,1.254
					c-0.178,0.348-0.422,0.629-0.732,0.848s-0.674,0.379-1.09,0.479c-0.414,0.1-0.852,0.152-1.314,0.152
					c-0.33,0-0.65-0.041-0.967-0.119s-0.631-0.166-0.943-0.264l0.135-1.221c0.115,0.045,0.248,0.092,0.398,0.145
					c0.152,0.053,0.312,0.1,0.482,0.145s0.346,0.08,0.527,0.111c0.184,0.031,0.357,0.047,0.527,0.047
					c0.188,0,0.391-0.029,0.607-0.086c0.219-0.057,0.418-0.145,0.596-0.262c0.178-0.119,0.326-0.271,0.445-0.461
					c0.121-0.189,0.18-0.418,0.18-0.689c0-0.342-0.096-0.619-0.293-0.836c-0.195-0.213-0.443-0.4-0.74-0.562
					c-0.299-0.164-0.623-0.32-0.969-0.469s-0.67-0.326-0.969-0.531c-0.297-0.205-0.545-0.463-0.74-0.771
					c-0.197-0.305-0.293-0.695-0.293-1.168c0-0.402,0.078-0.758,0.232-1.07c0.156-0.311,0.367-0.572,0.635-0.781
					c0.266-0.211,0.582-0.371,0.947-0.48c0.365-0.107,0.758-0.164,1.176-0.164c0.312,0,0.643,0.027,0.988,0.08
					c0.348,0.051,0.682,0.133,1.002,0.25L274.678,82.049z"/>
				<path fill="#414042" d="M280.312,81.826h-2.896V80.67h7.131v1.156h-2.898v8.016h-1.336V81.826z"/>
				<path fill="#414042" d="M287.139,80.67h2.281c0.465,0,0.91,0.025,1.342,0.078c0.434,0.053,0.818,0.168,1.156,0.342
					c0.34,0.176,0.609,0.426,0.814,0.748c0.207,0.324,0.309,0.764,0.309,1.316c0,0.279-0.049,0.539-0.148,0.775
					c-0.098,0.236-0.234,0.443-0.406,0.623c-0.174,0.18-0.379,0.328-0.615,0.447c-0.234,0.117-0.486,0.199-0.756,0.242v0.025
					c0.207,0.08,0.371,0.184,0.494,0.311c0.125,0.127,0.264,0.33,0.416,0.611l1.764,3.652h-1.523l-1.43-3.18
					c-0.105-0.219-0.213-0.391-0.32-0.514c-0.107-0.121-0.223-0.211-0.348-0.27c-0.123-0.055-0.26-0.088-0.406-0.098
					c-0.146-0.008-0.309-0.014-0.486-0.014h-0.803v4.074h-1.334V80.67z M288.473,84.611h1.135c0.643,0,1.137-0.127,1.49-0.381
					c0.352-0.254,0.527-0.604,0.527-1.051c0-0.422-0.158-0.752-0.475-0.992c-0.316-0.242-0.781-0.361-1.395-0.361h-1.283V84.611z"/>
				<path fill="#414042" d="M303.965,86.043c0,1.297-0.314,2.281-0.943,2.951c-0.625,0.672-1.52,1.006-2.678,1.006
					c-1.156,0-2.049-0.334-2.676-1.006c-0.629-0.67-0.941-1.654-0.941-2.951V80.67h1.336v5.203c0,0.439,0.037,0.84,0.113,1.203
					c0.076,0.365,0.201,0.678,0.381,0.939c0.178,0.262,0.414,0.467,0.707,0.611s0.654,0.217,1.08,0.217
					c0.428,0,0.789-0.072,1.084-0.217c0.293-0.145,0.529-0.35,0.707-0.611s0.305-0.574,0.381-0.939
					c0.076-0.363,0.113-0.764,0.113-1.203V80.67h1.336V86.043z"/>
				<path fill="#414042" d="M314.127,82.18c-0.586-0.342-1.229-0.51-1.924-0.51c-0.533,0-1.021,0.088-1.461,0.268
					s-0.818,0.43-1.135,0.748c-0.316,0.32-0.559,0.699-0.727,1.137c-0.17,0.439-0.254,0.916-0.254,1.434
					c0,0.543,0.09,1.033,0.273,1.473c0.182,0.438,0.434,0.814,0.754,1.129c0.32,0.316,0.695,0.559,1.123,0.73
					c0.426,0.17,0.879,0.256,1.359,0.256c0.17,0,0.348-0.01,0.535-0.033c0.188-0.021,0.373-0.053,0.555-0.092
					c0.184-0.039,0.355-0.086,0.52-0.139s0.305-0.113,0.422-0.184l0.08,1.275c-0.355,0.148-0.73,0.24-1.123,0.275
					c-0.391,0.033-0.725,0.053-1,0.053c-0.738,0-1.41-0.113-2.016-0.334c-0.605-0.225-1.123-0.545-1.551-0.961
					s-0.76-0.92-0.994-1.51c-0.236-0.592-0.354-1.252-0.354-1.979c0-0.709,0.121-1.354,0.367-1.932
					c0.244-0.578,0.588-1.074,1.027-1.486c0.441-0.41,0.963-0.727,1.564-0.953c0.6-0.223,1.256-0.334,1.967-0.334
					c0.365,0,0.723,0.029,1.07,0.088c0.346,0.055,0.689,0.156,1.027,0.307L314.127,82.18z"/>
				<path fill="#414042" d="M319.041,81.826h-2.896V80.67h7.131v1.156h-2.896v8.016h-1.338V81.826z"/>
				<path fill="#414042" d="M325.945,80.67h1.336v9.172h-1.336V80.67z"/>
				<path fill="#414042" d="M330.514,85.256c0-0.684,0.102-1.316,0.299-1.893c0.201-0.578,0.494-1.078,0.883-1.498
					c0.387-0.422,0.857-0.75,1.41-0.992c0.551-0.242,1.182-0.361,1.896-0.361c0.701,0,1.332,0.119,1.889,0.361
					s1.029,0.57,1.416,0.992c0.387,0.42,0.68,0.92,0.881,1.498c0.201,0.576,0.301,1.209,0.301,1.893c0,0.701-0.1,1.342-0.301,1.92
					s-0.492,1.076-0.875,1.496c-0.383,0.422-0.854,0.748-1.408,0.979c-0.557,0.232-1.191,0.35-1.902,0.35
					c-0.715,0-1.348-0.117-1.904-0.35c-0.557-0.23-1.025-0.557-1.408-0.979c-0.385-0.42-0.676-0.918-0.877-1.496
					C330.615,86.598,330.514,85.957,330.514,85.256z M331.93,85.256c0,0.455,0.059,0.898,0.18,1.328
					c0.119,0.428,0.305,0.812,0.555,1.148c0.248,0.338,0.568,0.607,0.953,0.809c0.389,0.203,0.848,0.303,1.385,0.303
					c0.533,0,0.992-0.1,1.381-0.303c0.389-0.201,0.707-0.471,0.953-0.809c0.25-0.336,0.436-0.721,0.555-1.148
					c0.121-0.43,0.182-0.873,0.182-1.328c0-0.465-0.066-0.914-0.193-1.348c-0.129-0.434-0.32-0.814-0.574-1.15
					c-0.254-0.332-0.572-0.598-0.955-0.795c-0.383-0.195-0.834-0.293-1.348-0.293c-0.518,0-0.969,0.098-1.35,0.293
					c-0.383,0.197-0.703,0.463-0.957,0.795c-0.252,0.336-0.443,0.717-0.572,1.15S331.93,84.791,331.93,85.256z"/>
				<path fill="#414042" d="M342.707,80.67h1.816l4.113,7.385h0.029V80.67H350v9.172h-1.709l-4.221-7.543h-0.027v7.543h-1.336V80.67
					z"/>
			</g>
			<g>
				<g>
					<g>
						<path fill="#414042" d="M219.289,22.443h-7.09V15.47h7.09V22.443z M212.602,29.945h6.285v33.553h-6.285V29.945z"/>
						<path fill="#414042" d="M250.518,35.603c-2.408-0.988-4.814-1.448-6.82-1.448c-7.021,0-10.967,6.184-10.967,12.567
							c0,5.987,3.275,12.567,11.367,12.567c2.139,0,4.814-0.66,6.754-1.908l0.467,5.525c-2.607,1.184-5.615,1.383-7.891,1.383
							c-10.299,0-17.385-7.963-17.385-17.567c0-10.198,6.955-17.568,17.385-17.568c2.541,0,5.818,0.593,7.623,1.316L250.518,35.603z
							"/>
						<path fill="#414042" d="M278.67,35.603c-2.408-0.988-4.812-1.448-6.82-1.448c-7.021,0-10.971,6.184-10.971,12.567
							c0,5.987,3.281,12.567,11.373,12.567c2.139,0,4.812-0.66,6.75-1.908l0.469,5.525c-2.607,1.184-5.613,1.383-7.889,1.383
							c-10.299,0-17.387-7.963-17.387-17.567c0-10.198,6.955-17.568,17.387-17.568c2.543,0,5.816,0.593,7.621,1.316L278.67,35.603z"
							/>
						<path fill="#414042" d="M286.76,32.313c3.143-1.843,6.889-3.159,11.236-3.159c9.762,0,13.707,4.739,13.707,13.883V56.92
							c0,3.816,0.133,5.592,0.268,6.578h-5.883v-4.342h-0.135c-1.471,2.039-4.816,5.133-10.566,5.133
							c-7.357,0-12.506-3.16-12.506-10.461c0-8.422,9.363-11.054,15.85-11.054c2.473,0,4.213,0,6.688,0.132
							c0-5.791-2.139-8.751-8.426-8.751c-3.545,0-7.357,1.315-9.898,3.421L286.76,32.313z M305.418,47.512
							c-1.338,0-2.676-0.131-4.014-0.131c-3.408,0-11.836,0.523-11.836,6.447c0,3.553,3.479,5.461,6.352,5.461
							c6.223,0,9.498-3.816,9.498-8.818V47.512z"/>
					</g>
					<g>
						<path fill="#414042" d="M61.752,35.603c-2.404-0.988-4.814-1.448-6.82-1.448c-7.021,0-10.967,6.184-10.967,12.567
							c0,5.987,3.276,12.567,11.368,12.567c2.139,0,4.816-0.66,6.754-1.908l0.469,5.525c-2.607,1.184-5.617,1.383-7.891,1.383
							c-10.299,0-17.385-7.963-17.385-17.567c0-10.198,6.954-17.568,17.385-17.568c2.541,0,5.818,0.593,7.623,1.316L61.752,35.603z"
							/>
						<path fill="#414042" d="M75.727,22.443h-7.088V15.47h7.088V22.443z M69.043,29.945h6.285v33.553h-6.285V29.945z"/>
						<path fill="#414042" d="M82.75,56.92c2.475,1.578,6.018,2.369,7.824,2.369c2.875,0,6.42-1.186,6.42-4.805
							c0-6.117-14.779-5.592-14.779-15c0-6.974,5.281-10.331,12.037-10.331c2.943,0,5.35,0.593,7.824,1.316l-0.537,5.396
							c-1.402-0.856-5.146-1.711-6.617-1.711c-3.211,0-6.02,1.315-6.02,4.079c0,6.843,14.779,4.87,14.779,15.595
							c0,7.17-5.816,10.461-11.904,10.461c-3.211,0-6.486-0.33-9.363-1.844L82.75,56.92z"/>
						<path fill="#414042" d="M131.434,35.603c-2.408-0.988-4.816-1.448-6.824-1.448c-7.02,0-10.965,6.184-10.965,12.567
							c0,5.987,3.275,12.567,11.369,12.567c2.141,0,4.814-0.66,6.754-1.908l0.469,5.525c-2.61,1.184-5.62,1.383-7.893,1.383
							c-10.299,0-17.387-7.963-17.387-17.567c0-10.198,6.953-17.568,17.387-17.568c2.541,0,5.818,0.593,7.623,1.316L131.434,35.603z
							"/>
					</g>
				</g>
			</g>
		</g>
	</g>
	<path fill="#C74A1B" d="M147.728,0v72.26h46.36V0H147.728z M179.975,61.359l8.094,9.621c-8.646-5.986-12.924-9.059-17.298-9.072
		c-4.373,0.014-8.65,3.086-17.297,9.072l8.094-9.621h8.27l-20.688-12.125l19.146,6.939l2.445-54.34l0.029-0.356l0.029,0.356
		l2.445,54.34l19.147-6.939l-20.688,12.125H179.975z"/>
</g>
</svg>
